<?xml version="1.0" standalone="no"?><!DOCTYPE svg PUBLIC "-//W3C//DTD SVG 1.1//EN" "http://www.w3.org/Graphics/SVG/1.1/DTD/svg11.dtd"><svg t="1704932426249" class="icon" viewBox="0 0 1024 1024" version="1.1" xmlns="http://www.w3.org/2000/svg" p-id="10793" xmlns:xlink="http://www.w3.org/1999/xlink" width="200" height="200"><path d="M240.47598 759.1528c0 35.609708 26.707281 62.316988 60.091381 62.316988l44.512135 0c-2.225607 4.451213-2.225607 11.128033-2.225607 15.579247l0 124.633976c0 33.384101 26.707281 60.091381 57.865775 60.091381 31.158495 0 57.865775-26.707281 57.865775-60.091381l0-124.633976c0-6.67682 0-11.128033-2.225607-15.579247l106.829123 0c-2.225607 4.451213-2.225607 11.128033-2.225607 15.579247l0 124.633976c0 33.384101 26.707281 60.091381 57.865775 60.091381s57.865775-26.707281 57.865775-60.091381l0-124.633976c0-6.67682 0-11.128033-2.225607-15.579247l44.512135 0c33.384101 0 60.091381-28.932888 60.091381-62.316988L779.072807 325.159488 240.47598 325.159488 240.47598 759.1528 240.47598 759.1528 240.47598 759.1528zM144.774891 325.159488c-31.158495 0-57.865775 26.707281-57.865775 60.091381l0 253.719167c0 33.384101 26.707281 60.091381 57.865775 60.091381 31.158495 0 57.865775-26.707281 57.865775-60.091381L202.640665 383.025263C202.640665 349.641163 178.158991 325.159488 144.774891 325.159488L144.774891 325.159488 144.774891 325.159488zM876.999503 325.159488c-31.158495 0-57.865775 26.707281-57.865775 60.091381l0 253.719167c0 33.384101 26.707281 60.091381 57.865775 60.091381 31.158495 0 57.865775-26.707281 57.865775-60.091381L934.865277 383.025263C934.865277 349.641163 908.157997 325.159488 876.999503 325.159488L876.999503 325.159488 876.999503 325.159488zM643.310797 87.019568l44.512135-71.219415c2.225607-4.451213 2.225607-11.128033-2.225607-13.35364C681.146111 0.220907 676.694897 0.220907 672.243684 4.67212L647.762011 44.733041l-11.128033 15.579247-11.128033 17.804853c-35.609708-13.35364-73.445021-22.256067-113.505943-22.256067-40.060921 0-80.121843 8.902427-113.505943 22.256067l-22.256067-33.384101-26.707281-40.060921C345.079496 0.220907 340.628283 0.220907 336.177069 2.446513c-4.451213 2.225607-6.67682 8.902427-2.225607 13.35364l44.512135 71.219415c-82.347449 40.060921-137.987617 113.505943-137.987617 198.078999l538.596828 0C781.298413 200.525512 725.658245 124.854883 643.310797 87.019568L643.310797 87.019568 643.310797 87.019568zM396.268451 204.976725c-15.579247 0-28.932888-13.35364-28.932888-28.932888 0-15.579247 13.35364-28.932888 28.932888-28.932888 15.579247 0 28.932888 13.35364 28.932888 28.932888C425.201337 191.623084 411.847697 204.976725 396.268451 204.976725L396.268451 204.976725 396.268451 204.976725zM625.505943 204.976725c-15.579247 0-28.932888-13.35364-28.932888-28.932888 0-15.579247 13.35364-28.932888 28.932888-28.932888 15.579247 0 28.932888 13.35364 28.932888 28.932888C654.438831 191.623084 643.310797 204.976725 625.505943 204.976725L625.505943 204.976725 625.505943 204.976725zM625.505943 204.976725M242.701587 759.1528c0 35.609708 26.707281 62.316988 60.091381 62.316988l44.512135 0c-2.225607 4.451213-2.225607 11.128033-2.225607 15.579247l0 124.633976c0 33.384101 26.707281 60.091381 57.865775 60.091381 31.158495 0 57.865775-26.707281 57.865775-60.091381l0-124.633976c0-6.67682 0-11.128033-2.225607-15.579247l106.829123 0c-2.225607 4.451213-2.225607 11.128033-2.225607 15.579247l0 124.633976c0 33.384101 26.707281 60.091381 57.865775 60.091381 31.158495 0 57.865775-26.707281 57.865775-60.091381l0-124.633976c0-6.67682 0-11.128033-2.225607-15.579247l44.512135 0c33.384101 0 60.091381-28.932888 60.091381-62.316988L781.298413 322.933882 242.701587 322.933882 242.701587 759.1528 242.701587 759.1528 242.701587 759.1528zM147.000497 322.933882c-31.158495 0-57.865775 26.707281-57.865775 60.091381l0 253.719167c0 33.384101 26.707281 60.091381 57.865775 60.091381 31.158495 0 57.865775-26.707281 57.865775-60.091381L204.866272 383.025263C204.866272 349.641163 180.384598 322.933882 147.000497 322.933882L147.000497 322.933882 147.000497 322.933882zM879.225109 322.933882c-31.158495 0-57.865775 26.707281-57.865775 60.091381l0 253.719167c0 33.384101 26.707281 60.091381 57.865775 60.091381 31.158495 0 57.865775-26.707281 57.865775-60.091381L937.090884 383.025263C937.090884 349.641163 910.383604 322.933882 879.225109 322.933882L879.225109 322.933882 879.225109 322.933882zM645.536404 87.019568l44.512135-71.219415c2.225607-4.451213 2.225607-11.128033-2.225607-13.35364-4.451213-2.225607-11.128033-2.225607-13.35364 2.225607L649.987617 44.733041l-11.128033 15.579247-11.128033 17.804853c-35.609708-13.35364-73.445021-22.256067-113.505943-22.256067-40.060921 0-80.121843 8.902427-113.505943 22.256067l-22.256067-33.384101-26.707281-40.060921c-2.225607-4.451213-8.902427-6.67682-13.35364-2.225607C333.951462 4.67212 331.725855 11.34894 333.951462 15.800154l44.512135 71.219415c-82.347449 40.060921-137.987617 113.505943-137.987617 198.078999l538.596828 0C783.52402 198.299905 727.883852 124.854883 645.536404 87.019568L645.536404 87.019568 645.536404 87.019568zM398.494057 204.976725c-15.579247 0-28.932888-13.35364-28.932888-28.932888 0-15.579247 13.35364-28.932888 28.932888-28.932888 15.579247 0 28.932888 13.35364 28.932888 28.932888C427.426944 191.623084 414.073304 204.976725 398.494057 204.976725L398.494057 204.976725 398.494057 204.976725zM627.731549 204.976725c-15.579247 0-28.932888-13.35364-28.932888-28.932888 0-15.579247 13.35364-28.932888 28.932888-28.932888 15.579247 0 28.932888 13.35364 28.932888 28.932888C656.664437 191.623084 645.536404 204.976725 627.731549 204.976725L627.731549 204.976725 627.731549 204.976725zM627.731549 204.976725" p-id="10794"></path></svg>